<svg width="15" height="16" viewBox="0 0 15 16" fill="none" xmlns="http://www.w3.org/2000/svg">
<path d="M10 7.15208V2.84375C10 2.40208 9.825 1.97708 9.50833 1.66875L8.08333 0.24375C7.75833 -0.08125 7.23333 -0.08125 6.90833 0.24375L5.49167 1.66042C5.175 1.97708 5 2.40208 5 2.84375V3.81875H1.66667C0.75 3.81875 0 4.56875 0 5.48542V13.8188C0 14.7354 0.75 15.4854 1.66667 15.4854H13.3333C14.25 15.4854 15 14.7354 15 13.8188V8.81875C15 7.90208 14.25 7.15208 13.3333 7.15208H10ZM3.33333 13.8188H1.66667V12.1521H3.33333V13.8188ZM3.33333 10.4854H1.66667V8.81875H3.33333V10.4854ZM3.33333 7.15208H1.66667V5.48542H3.33333V7.15208ZM8.33333 13.8188H6.66667V12.1521H8.33333V13.8188ZM8.33333 10.4854H6.66667V8.81875H8.33333V10.4854ZM8.33333 7.15208H6.66667V5.48542H8.33333V7.15208ZM8.33333 3.81875H6.66667V2.15208H8.33333V3.81875ZM13.3333 13.8188H11.6667V12.1521H13.3333V13.8188ZM13.3333 10.4854H11.6667V8.81875H13.3333V10.4854Z" fill="#616161"/>
</svg>
