<svg width="21" height="17" viewBox="0 0 21 17" fill="none" xmlns="http://www.w3.org/2000/svg">
<path d="M19.6014 12.1782H17.3265L17.0762 1H19.8626L19.6014 12.1782ZM17 15.5959C17 15.1823 17.1342 14.8413 17.4027 14.5728C17.6712 14.2971 18.0376 14.1592 18.502 14.1592C18.9664 14.1592 19.3329 14.2971 19.6014 14.5728C19.8698 14.8413 20.0041 15.1823 20.0041 15.5959C20.0041 15.995 19.8735 16.3288 19.6122 16.5973C19.351 16.8658 18.981 17 18.502 17C18.0231 17 17.6531 16.8658 17.3918 16.5973C17.1306 16.3288 17 15.995 17 15.5959Z" fill="#616161"/>
<path d="M7.992 0C3.576 0 0 3.584 0 8C0 12.416 3.576 16 7.992 16C12.416 16 16 12.416 16 8C16 3.584 12.416 0 7.992 0ZM8 14.4C4.464 14.4 1.6 11.536 1.6 8C1.6 4.464 4.464 1.6 8 1.6C11.536 1.6 14.4 4.464 14.4 8C14.4 11.536 11.536 14.4 8 14.4Z" fill="#616161"/>
<path d="M8.39995 4H7.19995V8.8L11.4 11.32L12 10.336L8.39995 8.2V4Z" fill="#616161"/>
</svg>
