<svg width="21" height="15" viewBox="0 0 21 15" fill="none" xmlns="http://www.w3.org/2000/svg">
<path d="M7.4925 0C3.3525 0 0 3.36 0 7.5C0 11.64 3.3525 15 7.4925 15C11.64 15 15 11.64 15 7.5C15 3.36 11.64 0 7.4925 0ZM7.5 13.5C4.185 13.5 1.5 10.815 1.5 7.5C1.5 4.185 4.185 1.5 7.5 1.5C10.815 1.5 13.5 4.185 13.5 7.5C13.5 10.815 10.815 13.5 7.5 13.5Z" fill="#3F8FAC"/>
<path d="M7.875 3.75H6.75V8.25L10.6875 10.6125L11.25 9.69L7.875 7.6875V3.75Z" fill="#3F8FAC"/>
<path d="M16.7143 5.88561V5.03383C16.7143 4.55704 17.2928 4.32133 17.6303 4.65883L20.0893 7.11776C20.2982 7.32668 20.2982 7.66418 20.0893 7.87311L17.6303 10.332C17.2928 10.6695 16.7143 10.4285 16.7143 9.95168V9.0999H14.0357C13.7411 9.0999 13.5 8.85883 13.5 8.56418V6.42133C13.5 6.12668 13.7411 5.88561 14.0357 5.88561H16.7143Z" fill="#3F8FAC"/>
</svg>
