<svg width="14" height="15" viewBox="0 0 14 15" fill="none" xmlns="http://www.w3.org/2000/svg">
<path d="M13.3333 3.33333V12.1212C13.3333 13.4545 12.2424 14.5455 10.9091 14.5455H6.48485C5.8303 14.5455 5.21212 14.2848 4.75758 13.8242L0 8.98788C0 8.98788 0.763636 8.24242 0.787879 8.2303C0.921212 8.11515 1.08485 8.05455 1.26667 8.05455C1.4 8.05455 1.52121 8.09091 1.6303 8.15152C1.65455 8.15758 4.24242 9.64242 4.24242 9.64242V2.42424C4.24242 1.92121 4.64848 1.51515 5.15152 1.51515C5.65454 1.51515 6.06061 1.92121 6.06061 2.42424V6.66667H6.66667V0.909091C6.66667 0.406061 7.07273 0 7.57576 0C8.07879 0 8.48485 0.406061 8.48485 0.909091V6.66667H9.09091V1.51515C9.09091 1.01212 9.49697 0.606061 10 0.606061C10.503 0.606061 10.9091 1.01212 10.9091 1.51515V6.66667H11.5152V3.33333C11.5152 2.8303 11.9212 2.42424 12.4242 2.42424C12.9273 2.42424 13.3333 2.8303 13.3333 3.33333Z" fill="#C5C5C5"/>
</svg>
