<svg width="16" height="16" viewBox="0 0 16 16" fill="none" xmlns="http://www.w3.org/2000/svg">
<path d="M4.66669 12C3.93335 12 3.34002 12.6 3.34002 13.3333C3.34002 14.0667 3.93335 14.6667 4.66669 14.6667C5.40002 14.6667 6.00002 14.0667 6.00002 13.3333C6.00002 12.6 5.40002 12 4.66669 12ZM1.33335 2.66666H2.00002L4.40002 7.72666L3.50002 9.35333C3.01335 10.2467 3.65335 11.3333 4.66669 11.3333H12C12.3667 11.3333 12.6667 11.0333 12.6667 10.6667C12.6667 10.3 12.3667 10 12 10H4.66669L5.40002 8.66666H10.3667C10.8667 8.66666 11.3067 8.39333 11.5334 7.98L13.92 3.65333C14.1667 3.21333 13.8467 2.66666 13.34 2.66666H3.47335L3.02669 1.71333C2.92002 1.47999 2.68002 1.33333 2.42669 1.33333H1.33335C0.966687 1.33333 0.666687 1.63333 0.666687 1.99999C0.666687 2.36666 0.966687 2.66666 1.33335 2.66666ZM11.3334 12C10.6 12 10.0067 12.6 10.0067 13.3333C10.0067 14.0667 10.6 14.6667 11.3334 14.6667C12.0667 14.6667 12.6667 14.0667 12.6667 13.3333C12.6667 12.6 12.0667 12 11.3334 12Z" fill="black"/>
</svg>
