<svg width="13" height="17" viewBox="0 0 13 17" fill="none" xmlns="http://www.w3.org/2000/svg">
<path d="M10.4922 0.961899L11.2061 0.224602C11.2749 0.153404 11.3566 0.0969184 11.4465 0.0583781C11.5365 0.0198379 11.6329 0 11.7303 0C11.8277 0 11.9241 0.0198379 12.0141 0.0583781C12.104 0.0969184 12.1857 0.153404 12.2545 0.224602L12.7825 0.769894C13.0725 1.06942 13.0725 1.55327 12.7825 1.8528L12.0686 2.5901L10.4922 0.961899ZM9.74861 1.72992L11.325 3.35811L6.88574 7.94318C6.81664 8.01484 6.72338 8.05612 6.62548 8.05838H5.57701C5.3688 8.05838 5.2052 7.88942 5.2052 7.67437V6.59147C5.2052 6.49162 5.24238 6.39178 5.31674 6.32266L9.74861 1.72992ZM8.27628 1.63007L4.30545 5.73129C4.1716 5.87721 4.0898 6.06921 4.0898 6.27658V8.45007C4.0898 8.87248 4.42442 9.21809 4.8334 9.21809H6.93779C7.13857 9.21809 7.32447 9.1336 7.46575 8.99536L11.4291 4.90183C11.7266 5.65449 11.8976 6.50698 11.8976 7.44397C11.8976 9.88626 10.0758 12.7586 6.43958 16.0688C6.15701 16.3222 5.73316 16.3222 5.45059 16.0688C1.82182 12.7586 0 9.88626 0 7.44397C0 3.61924 2.82568 1.14622 5.94881 1.14622C6.75933 1.14622 7.55498 1.31519 8.27628 1.63007Z" fill="white"/>
</svg>
