<?xml version="1.0" standalone="no"?>
<!DOCTYPE svg PUBLIC "-//W3C//DTD SVG 20010904//EN"
 "http://www.w3.org/TR/2001/REC-SVG-20010904/DTD/svg10.dtd">
<svg version="1.0" xmlns="http://www.w3.org/2000/svg"
 width="500.000000pt" height="500.000000pt" viewBox="0 0 500.000000 500.000000"
 preserveAspectRatio="xMidYMid meet">

<g transform="translate(0.000000,500.000000) scale(0.100000,-0.100000)"
fill="#000000" stroke="none">
<path d="M1774 2867 c-56 -183 -98 -333 -93 -335 4 -2 51 9 104 23 53 15 99
25 101 22 3 -2 -108 -180 -245 -396 -247 -385 -250 -391 -228 -405 12 -8 46
-27 75 -44 l53 -30 177 102 c97 57 228 131 290 166 l112 64 0 331 0 331 -140
79 c-77 44 -140 85 -140 90 0 6 9 82 20 169 11 88 19 161 17 162 -1 2 -48
-147 -103 -329z"/>
<path d="M1250 2857 l-285 -163 0 -329 0 -329 138 -79 c110 -63 137 -83 137
-100 0 -12 -7 -76 -15 -142 -8 -65 -15 -126 -14 -135 0 -8 43 126 96 298 52
172 94 314 92 316 -2 2 -52 -9 -111 -24 -60 -16 -108 -27 -108 -25 0 3 113
181 250 396 138 216 250 395 250 398 0 6 -128 81 -139 81 -3 0 -134 -73 -291
-163z"/>
<path d="M2563 2699 c-101 -30 -123 -186 -34 -246 45 -30 122 -31 169 -3 80
49 79 182 -1 234 -30 20 -95 27 -134 15z m107 -79 c47 -47 11 -130 -55 -130
-46 0 -75 29 -75 75 0 22 8 43 20 55 12 12 33 20 55 20 22 0 43 -8 55 -20z"/>
<path d="M2879 2701 c-72 -23 -99 -61 -99 -136 0 -89 50 -135 145 -135 86 0
95 8 95 85 l0 65 -50 0 c-43 0 -50 -3 -50 -20 0 -13 7 -20 20 -20 14 0 20 -7
20 -24 0 -28 -15 -36 -53 -29 -37 7 -61 38 -61 79 0 65 62 95 147 70 24 -7 27
-6 27 18 0 14 -8 30 -19 35 -27 15 -92 21 -122 12z"/>
<path d="M3634 2696 c-34 -15 -44 -33 -44 -75 0 -32 17 -50 78 -80 85 -43 24
-82 -71 -45 -12 4 -16 -3 -19 -28 -3 -28 -10 -14 -54 97 l-50 130 -35 3 -35 3
-47 -118 c-25 -65 -49 -126 -53 -135 -5 -15 0 -18 28 -18 28 0 35 5 45 30 10
28 15 30 61 30 45 0 51 -3 61 -29 l12 -28 106 -1 c135 -1 163 11 163 75 0 38
-19 59 -78 84 -31 14 -42 24 -40 36 3 15 13 18 56 17 48 -2 52 0 52 22 0 12
-4 25 -9 28 -23 14 -98 15 -127 2z m-185 -88 c25 -67 25 -68 -12 -68 l-35 0
17 45 c9 25 17 45 19 45 1 0 6 -10 11 -22z"/>
<path d="M2230 2565 l0 -135 80 0 c89 0 123 11 139 47 15 34 14 47 -9 76 -17
22 -18 26 -5 37 22 19 18 58 -10 85 -22 23 -32 25 -110 25 l-85 0 0 -135z
m148 58 c3 -17 -3 -24 -22 -29 -41 -10 -61 -1 -64 29 -3 27 -2 28 40 25 36 -2
44 -7 46 -25z m-4 -86 c10 -7 16 -22 14 -33 -3 -15 -12 -19 -48 -19 -46 0 -60
15 -46 51 7 18 56 18 80 1z"/>
<path d="M3060 2565 l0 -135 63 0 c121 1 187 58 174 153 -11 82 -62 117 -172
117 l-65 0 0 -135z m153 54 c9 -12 17 -36 17 -55 0 -45 -30 -74 -75 -74 l-35
0 0 73 c0 41 3 77 7 81 13 13 67 -3 86 -25z"/>
<path d="M3810 2565 l0 -135 35 0 35 0 0 55 0 55 55 0 55 0 0 -55 c0 -54 0
-55 30 -55 l30 0 0 135 0 135 -30 0 c-29 0 -30 -1 -30 -50 l0 -50 -55 0 -55 0
0 50 0 50 -35 0 -35 0 0 -135z"/>
<path d="M4090 2565 l0 -135 35 0 34 0 3 60 3 60 48 -60 c45 -55 52 -60 89
-60 l40 0 -56 67 c-31 37 -56 70 -56 74 0 4 23 35 51 68 l51 61 -40 0 c-36 0
-44 -5 -86 -56 l-46 -56 0 56 0 56 -35 0 -35 0 0 -135z"/>
<path d="M4405 2574 c-27 -70 -51 -131 -53 -135 -2 -5 11 -9 30 -9 28 0 35 5
45 30 10 28 15 30 63 30 48 0 52 -2 61 -30 9 -25 16 -30 45 -30 l34 0 -17 43
c-92 231 -87 222 -124 225 l-34 3 -50 -127z m99 22 c3 -13 9 -31 12 -40 5 -13
-1 -16 -25 -16 -34 0 -36 3 -20 49 13 37 25 40 33 7z"/>
<path d="M2313 2309 c-69 -20 -108 -108 -82 -183 19 -56 67 -86 133 -86 82 0
96 7 96 47 0 30 -2 33 -19 23 -34 -18 -109 -12 -131 10 -20 20 -26 63 -14 95
15 39 87 53 150 28 10 -4 14 3 14 25 0 27 -5 32 -37 41 -44 13 -66 13 -110 0z"/>
<path d="M2500 2175 l0 -135 30 0 c29 0 30 2 30 45 0 38 3 45 20 45 14 0 27
-14 42 -45 19 -40 26 -45 55 -45 18 0 33 2 33 5 0 3 -9 24 -21 46 l-20 41 23
25 c34 36 31 97 -5 129 -25 21 -38 24 -108 24 l-79 0 0 -135z m131 75 c41 -23
16 -70 -38 -70 -31 0 -33 2 -33 33 0 19 3 37 7 40 10 10 42 8 64 -3z"/>
<path d="M2750 2175 l0 -135 30 0 30 0 1 68 1 67 31 -67 c20 -44 37 -68 47
-68 10 0 27 24 47 68 l31 67 1 -67 1 -68 30 0 30 0 0 135 0 135 -31 0 c-28 0
-33 -5 -66 -80 -20 -44 -39 -80 -43 -80 -3 0 -22 36 -42 80 -34 75 -38 80 -67
80 l-31 0 0 -135z"/>
<path d="M3550 2227 c-65 -97 -68 -102 -46 -94 20 8 21 -8 1 -63 -8 -23 -15
-45 -15 -48 0 -3 27 34 60 82 33 49 60 90 60 93 0 3 -7 3 -15 -1 -19 -7 -19
10 0 64 8 24 14 44 13 46 -2 1 -28 -34 -58 -79z"/>
</g>
</svg>
