<svg width="25" height="24" viewBox="0 0 25 24" fill="none" xmlns="http://www.w3.org/2000/svg">
<path d="M15.8641 14H15.0555L14.769 13.73C15.9971 12.33 16.6317 10.42 16.2837 8.39002C15.8027 5.61002 13.4282 3.39002 10.5624 3.05002C6.23305 2.53002 2.58942 6.09001 3.12164 10.32C3.46963 13.12 5.74177 15.44 8.58708 15.91C10.6648 16.25 12.6196 15.63 14.0525 14.43L14.3289 14.71V15.5L18.6787 19.75C19.0983 20.16 19.7841 20.16 20.2037 19.75C20.6233 19.34 20.6233 18.67 20.2037 18.26L15.8641 14ZM9.72315 14C7.17466 14 5.11744 11.99 5.11744 9.50002C5.11744 7.01002 7.17466 5.00002 9.72315 5.00002C12.2716 5.00002 14.3289 7.01002 14.3289 9.50002C14.3289 11.99 12.2716 14 9.72315 14Z" fill="black" fill-opacity="0.39"/>
</svg>
