<svg width="16" height="16" viewBox="0 0 16 16" fill="none" xmlns="http://www.w3.org/2000/svg">
<path d="M13.3333 5.79333V3.99999C13.3333 3.26666 12.7333 2.66666 12 2.66666H10.2067L8.94001 1.39999C8.42001 0.879995 7.57334 0.879995 7.05334 1.39999L5.79334 2.66666H4.00001C3.26668 2.66666 2.66668 3.26666 2.66668 3.99999V5.79333L1.40001 7.05999C0.88001 7.57999 0.88001 8.42666 1.40001 8.94666L2.66668 10.2133V12C2.66668 12.7333 3.26668 13.3333 4.00001 13.3333H5.79334L7.06001 14.6C7.58001 15.12 8.42668 15.12 8.94668 14.6L10.2133 13.3333H12C12.7333 13.3333 13.3333 12.7333 13.3333 12V10.2067L14.6 8.93999C15.12 8.41999 15.12 7.57333 14.6 7.05333L13.3333 5.79333ZM8.00001 12C5.79334 12 4.00001 10.2067 4.00001 7.99999C4.00001 5.79333 5.79334 3.99999 8.00001 3.99999C10.2067 3.99999 12 5.79333 12 7.99999C12 10.2067 10.2067 12 8.00001 12ZM8.00001 5.33333C6.52668 5.33333 5.33334 6.52666 5.33334 7.99999C5.33334 9.47333 6.52668 10.6667 8.00001 10.6667C9.47334 10.6667 10.6667 9.47333 10.6667 7.99999C10.6667 6.52666 9.47334 5.33333 8.00001 5.33333Z" fill="black"/>
</svg>
