<svg width="15" height="14" viewBox="0 0 15 14" fill="none" xmlns="http://www.w3.org/2000/svg">
<path d="M14.9258 4.41892L14.138 1.14037C13.973 0.46515 13.3878 0 12.7051 0H11.047H9.53905H8.24863H6.74815H5.45773H3.94225H2.28421C1.60899 0 1.0163 0.472652 0.858753 1.14037L0.0709995 4.41892C-0.109058 5.18417 0.0559947 5.96442 0.536149 6.57962C0.596169 6.66214 0.678695 6.72216 0.746217 6.79719V12.0039C0.746217 12.8291 1.42143 13.5043 2.2467 13.5043H12.7501C13.5753 13.5043 14.2506 12.8291 14.2506 12.0039V6.79719C14.3181 6.72967 14.4006 6.66214 14.4606 6.58712C14.9408 5.97192 15.1133 5.18417 14.9258 4.41892ZM3.76219 1.50048L3.32705 5.14666C3.26703 5.63431 2.8769 6.00193 2.41926 6.00193C2.05164 6.00193 1.81906 5.78436 1.72153 5.64932C1.52647 5.40174 1.45895 5.07913 1.53397 4.77153L2.28421 1.50048H3.76219ZM12.6826 1.49298L13.4703 4.77153C13.5453 5.08664 13.4778 5.40174 13.2828 5.64932C13.1777 5.78436 12.9526 6.00193 12.5775 6.00193C12.1199 6.00193 11.7222 5.63431 11.6697 5.14666L11.2346 1.50048L12.6826 1.49298ZM10.1317 4.89157C10.1692 5.18417 10.0792 5.47676 9.88416 5.69433C9.7116 5.8894 9.47152 6.00193 9.16393 6.00193C8.66126 6.00193 8.24863 5.55929 8.24863 5.01911V1.50048H9.7191L10.1317 4.89157ZM6.74815 5.01911C6.74815 5.55929 6.33552 6.00193 5.78034 6.00193C5.52525 6.00193 5.29268 5.8894 5.11262 5.69433C4.92506 5.47676 4.83503 5.18417 4.86504 4.89157L5.27767 1.50048H6.74815V5.01911ZM11.9998 12.0039H2.99694C2.58431 12.0039 2.2467 11.6663 2.2467 11.2536V7.47991C2.30672 7.48741 2.35924 7.50241 2.41926 7.50241C3.07197 7.50241 3.66466 7.23233 4.0998 6.78968C4.54994 7.23983 5.15013 7.50241 5.83285 7.50241C6.48556 7.50241 7.07075 7.23233 7.50589 6.80469C7.94853 7.23233 8.54873 7.50241 9.22394 7.50241C9.85415 7.50241 10.4543 7.23983 10.9045 6.78968C11.3396 7.23233 11.9323 7.50241 12.585 7.50241C12.645 7.50241 12.6976 7.48741 12.7576 7.47991V11.2536C12.7501 11.6663 12.4125 12.0039 11.9998 12.0039Z" fill="#616161"/>
</svg>
