<svg width="15" height="14" viewBox="0 0 15 14" fill="none" xmlns="http://www.w3.org/2000/svg">
<path d="M14.9925 9.11733L13.92 5.93362C13.815 5.62377 13.53 5.42236 13.1925 5.42236H7.8C7.455 5.42236 7.1775 5.62377 7.065 5.93362L6 9.11733V13.1764C6 13.6024 6.3375 13.9433 6.75 13.9433C7.1625 13.9433 7.5 13.5947 7.5 13.1686V12.394H13.5V13.1686C13.5 13.5947 13.8375 13.9433 14.25 13.9433C14.6625 13.9433 14.9925 13.6024 15 13.1764L14.9925 9.11733ZM7.2075 8.00962L7.725 6.46036C7.7625 6.30544 7.905 6.19699 8.07 6.19699H12.93C13.0875 6.19699 13.23 6.30544 13.2825 6.46036L13.8 8.00962C13.8825 8.2575 13.7025 8.52087 13.4475 8.52087H7.56C7.305 8.52087 7.125 8.2575 7.2075 8.00962ZM7.4925 10.8448C7.08 10.8448 6.7425 10.4962 6.7425 10.0701C6.7425 9.64408 7.08 9.2955 7.4925 9.2955C7.905 9.2955 8.2425 9.64408 8.2425 10.0701C8.2425 10.4962 7.905 10.8448 7.4925 10.8448ZM13.4925 10.8448C13.08 10.8448 12.7425 10.4962 12.7425 10.0701C12.7425 9.64408 13.08 9.2955 13.4925 9.2955C13.905 9.2955 14.2425 9.64408 14.2425 10.0701C14.2425 10.4962 13.905 10.8448 13.4925 10.8448Z" fill="#616161"/>
<path d="M9 1.16194V4.64776H9.75V0.774627C9.75 0.348582 9.4125 0 9 0H4.5C4.0875 0 3.75 0.348582 3.75 0.774627V3.87313H0.75C0.3375 3.87313 0 4.22172 0 4.64776V13.9433H0.75V5.03508C0.75 4.81818 0.915 4.64776 1.125 4.64776H4.125C4.335 4.64776 4.5 4.47734 4.5 4.26045V1.16194C4.5 0.945045 4.665 0.774627 4.875 0.774627H8.625C8.835 0.774627 9 0.945045 9 1.16194Z" fill="#616161"/>
<path d="M3.75 6.19702H2.25V7.74628H3.75V6.19702Z" fill="#616161"/>
<path d="M7.5 1.54932H6V3.09857H7.5V1.54932Z" fill="#616161"/>
<path d="M3.75 9.29541H2.25V10.8447H3.75V9.29541Z" fill="#616161"/>
<path d="M3.75 12.394H2.25V13.9433H3.75V12.394Z" fill="#616161"/>
</svg>
