<svg width="12" height="13" viewBox="0 0 12 13" fill="none" xmlns="http://www.w3.org/2000/svg">
<path d="M11.4545 2.19225H9.31708V0.548064C9.31708 0.246629 9.07045 0 8.76902 0C8.46758 0 8.22095 0.246629 8.22095 0.548064V2.19225H6.08351C5.76015 2.19225 5.50804 2.47177 5.53544 2.79512L5.60121 3.45828C7.61808 3.92414 9.31708 5.35458 9.31708 7.67289L9.32804 12.0574H10.2597C10.7201 12.0574 11.0983 11.7012 11.1531 11.2517L11.9971 2.79512C12.03 2.47177 11.7779 2.19225 11.4545 2.19225ZM7.67289 10.9613H0.548064C0.246629 10.9613 0 11.2079 0 11.5093C0 11.8108 0.246629 12.0574 0.548064 12.0574H7.67289C7.97433 12.0574 8.22095 11.8108 8.22095 11.5093C8.22095 11.2079 7.97433 10.9613 7.67289 10.9613ZM0.60287 7.67289H7.61808C7.95788 7.67289 8.22643 7.36597 8.16067 7.03714C7.80443 5.26689 5.95745 4.37903 4.11048 4.37903C2.2635 4.37903 0.422009 5.26689 0.060287 7.03714C-0.00548063 7.36597 0.268551 7.67289 0.60287 7.67289ZM7.67289 8.76902H0.548064C0.246629 8.76902 0 9.01565 0 9.31708C0 9.61852 0.246629 9.86514 0.548064 9.86514H7.67289C7.97433 9.86514 8.22095 9.61852 8.22095 9.31708C8.22095 9.01565 7.97433 8.76902 7.67289 8.76902Z" fill="#616161"/>
</svg>
