<svg width="16" height="16" viewBox="0 0 16 16" fill="none" xmlns="http://www.w3.org/2000/svg">
<path d="M10.4925 13.9256L11.2965 15.3246C10.5246 15.6784 9.6804 15.9116 8.80402 16V14.3759C9.39899 14.3035 9.96181 14.1508 10.4925 13.9256ZM1.62412 8.80402H0C0.0884422 9.68844 0.321608 10.5246 0.675377 11.2965L2.07437 10.4925C1.84925 9.96181 1.69648 9.39899 1.62412 8.80402ZM10.4925 2.07437L11.2965 0.675377C10.5246 0.321608 9.68844 0.0884422 8.80402 0V1.62412C9.39899 1.69648 9.96181 1.84925 10.4925 2.07437ZM14.3759 7.19598H16C15.9116 6.31156 15.6784 5.47538 15.3246 4.70352L13.9256 5.50754C14.1508 6.03819 14.3035 6.601 14.3759 7.19598ZM5.50754 13.9256L4.70352 15.3246C5.47538 15.6784 6.3196 15.9116 7.19598 16V14.3759C6.601 14.3035 6.03819 14.1508 5.50754 13.9256ZM7.19598 1.62412V0C6.31156 0.0884422 5.47538 0.321608 4.70352 0.675377L5.50754 2.07437C6.03819 1.84925 6.601 1.69648 7.19598 1.62412ZM13.1136 4.11658L14.5126 3.30452C14.006 2.60502 13.3869 1.98593 12.6874 1.4794L11.8754 2.87839C12.3497 3.2402 12.7598 3.65025 13.1136 4.11658ZM2.07437 5.50754L0.675377 4.70352C0.321608 5.47538 0.0884422 6.31156 0 7.19598H1.62412C1.69648 6.601 1.84925 6.03819 2.07437 5.50754ZM14.3759 8.80402C14.3035 9.39899 14.1508 9.96181 13.9256 10.4925L15.3246 11.2965C15.6784 10.5246 15.9116 9.6804 16 8.80402H14.3759ZM11.8834 13.1136L12.6955 14.5126C13.395 14.006 14.0141 13.3869 14.5206 12.6874L13.1216 11.8754C12.7598 12.3497 12.3497 12.7598 11.8834 13.1136ZM4.11658 2.88643L3.31256 1.4794C2.60502 1.99397 1.99397 2.60502 1.48744 3.31256L2.88643 4.12462C3.2402 3.65025 3.65025 3.2402 4.11658 2.88643ZM2.88643 11.8834L1.48744 12.6874C1.99397 13.3869 2.61307 14.006 3.31256 14.5126L4.12462 13.1136C3.65025 12.7598 3.2402 12.3497 2.88643 11.8834ZM8.80402 3.9799H7.19598V8.32965L10.6452 11.7789L11.7789 10.6452L8.80402 7.67035V3.9799Z" fill="white"/>
</svg>
