<svg width="70" height="30" viewBox="0 0 70 30" fill="none" xmlns="http://www.w3.org/2000/svg">
<path d="M40.94 22.4897H42.2531C42.1794 21.9619 42.0227 21.4989 41.7831 21.1007C41.5436 20.6932 41.2441 20.3552 40.8847 20.0866C40.5253 19.8181 40.1153 19.6144 39.6545 19.4754C39.1938 19.3365 38.7054 19.2671 38.1894 19.2671C37.4338 19.2671 36.7611 19.406 36.1714 19.6838C35.5909 19.9524 35.1025 20.3228 34.7063 20.7951C34.3193 21.2673 34.0244 21.823 33.8217 22.4619C33.6189 23.0917 33.5176 23.7677 33.5176 24.49C33.5176 25.2123 33.6097 25.8883 33.794 26.518C33.9875 27.1477 34.2732 27.6941 34.651 28.1571C35.0288 28.6201 35.5033 28.9859 36.0746 29.2545C36.646 29.5138 37.314 29.6434 38.0788 29.6434C39.3412 29.6434 40.3364 29.2962 41.0644 28.6016C41.7924 27.9071 42.2208 26.9347 42.3498 25.6846H41.0367C41.0091 26.092 40.9262 26.4717 40.788 26.8236C40.6497 27.1755 40.4562 27.4811 40.2074 27.7404C39.9678 27.9904 39.6776 28.1895 39.3366 28.3377C39.0049 28.4766 38.6225 28.5461 38.1894 28.5461C37.5997 28.5461 37.0929 28.4349 36.669 28.2127C36.2451 27.9904 35.895 27.6941 35.6185 27.3237C35.3513 26.944 35.1532 26.5041 35.0242 26.0041C34.8952 25.4947 34.8307 24.9576 34.8307 24.3927C34.8307 23.8742 34.8952 23.3741 35.0242 22.8926C35.1532 22.411 35.3513 21.985 35.6185 21.6146C35.895 21.2349 36.2405 20.934 36.6552 20.7117C37.079 20.4895 37.5859 20.3783 38.1756 20.3783C38.8667 20.3783 39.461 20.5543 39.9586 20.9062C40.4654 21.2581 40.7926 21.7859 40.94 22.4897Z" fill="#4AA7D4"/>
<path d="M43.9764 19.5032V29.4212H45.2895V25.1845H48.4962C48.8187 25.1845 49.0767 25.2354 49.2702 25.3373C49.4637 25.4299 49.6204 25.5596 49.7402 25.7263C49.86 25.8837 49.9475 26.0735 50.0028 26.2958C50.0581 26.5088 50.1042 26.7356 50.141 26.9764C50.1871 27.2172 50.2147 27.4626 50.224 27.7126C50.2332 27.9627 50.2424 28.1988 50.2516 28.421C50.2608 28.634 50.2792 28.8285 50.3069 29.0045C50.3437 29.1804 50.4082 29.3193 50.5004 29.4212H51.9655C51.8273 29.2545 51.7213 29.0646 51.6476 28.8517C51.5831 28.6294 51.5324 28.3979 51.4956 28.1571C51.4587 27.9163 51.4357 27.6709 51.4265 27.4209C51.4173 27.1709 51.4034 26.9255 51.385 26.6847C51.3574 26.4439 51.3159 26.2124 51.2606 25.9902C51.2145 25.7679 51.1362 25.5688 51.0256 25.3929C50.9243 25.2077 50.7814 25.0502 50.5971 24.9206C50.4221 24.7909 50.1917 24.6983 49.906 24.6428V24.615C50.505 24.4483 50.9381 24.1381 51.2053 23.6843C51.4818 23.2306 51.62 22.7027 51.62 22.1008C51.62 21.2951 51.3527 20.6608 50.8183 20.1978C50.2931 19.7347 49.5605 19.5032 48.6206 19.5032H43.9764ZM48.0263 24.0733H45.2895V20.6145H48.5515C49.1689 20.6145 49.6158 20.7719 49.8922 21.0868C50.1687 21.4016 50.3069 21.8091 50.3069 22.3091C50.3069 22.6703 50.2424 22.9666 50.1134 23.1982C49.9936 23.4204 49.8277 23.601 49.6158 23.7399C49.4131 23.8695 49.1735 23.9575 48.897 24.0038C48.6206 24.0501 48.3303 24.0733 48.0263 24.0733Z" fill="#4AA7D4"/>
<path d="M53.4662 19.5032V29.4212H54.7102V21.1701H54.7378L57.8201 29.4212H58.9397L62.022 21.1701H62.0496V29.4212H63.2936V19.5032H61.4968L58.373 27.8376L55.263 19.5032H53.4662Z" fill="#4AA7D4"/>
<path d="M41.8049 11.5032V2.54083H38.9417V11.3749C38.9417 11.6071 38.9295 11.8514 38.9052 12.108C38.893 12.3524 38.8383 12.5846 38.741 12.8045C38.6559 13.0122 38.51 13.1833 38.3033 13.3177C38.0967 13.4521 37.8049 13.5193 37.428 13.5193C37.0875 13.5193 36.8079 13.4643 36.589 13.3543C36.3823 13.2444 36.2182 13.0977 36.0966 12.9145C35.975 12.719 35.8899 12.4868 35.8413 12.218C35.7927 11.9492 35.7684 11.6559 35.7684 11.3383V10.7518H33.1786V11.8881C33.1786 12.609 33.3002 13.226 33.5434 13.7392C33.7866 14.2402 34.1088 14.6556 34.51 14.9855C34.9112 15.3032 35.3671 15.5354 35.8778 15.682C36.3884 15.8408 36.9173 15.9203 37.4644 15.9203C38.4371 15.9203 39.2091 15.7736 39.7806 15.4804C40.352 15.1749 40.7897 14.8022 41.0937 14.3624C41.3976 13.9103 41.5922 13.4277 41.6773 12.9145C41.7624 12.4013 41.8049 11.9309 41.8049 11.5032Z" fill="black"/>
<path d="M50.3886 9.87202H46.1758C46.1879 9.68874 46.2244 9.48103 46.2852 9.24887C46.3581 9.01672 46.4736 8.79678 46.6317 8.58907C46.8019 8.38135 47.0208 8.21029 47.2882 8.07588C47.5679 7.92926 47.9144 7.85595 48.3278 7.85595C48.96 7.85595 49.4281 8.02701 49.7321 8.36913C50.0482 8.71125 50.267 9.21221 50.3886 9.87202ZM46.1758 11.5215H52.9783C53.0269 10.7884 52.9661 10.0858 52.7959 9.41382C52.6257 8.7418 52.3461 8.14308 51.957 7.61768C51.5801 7.09228 51.0938 6.67685 50.498 6.37138C49.9023 6.05369 49.2032 5.89485 48.4007 5.89485C47.6834 5.89485 47.0268 6.02315 46.4311 6.27974C45.8475 6.53633 45.3429 6.89067 44.9174 7.34276C44.4918 7.78263 44.1636 8.30803 43.9326 8.91897C43.7016 9.5299 43.5861 10.1897 43.5861 10.8984C43.5861 11.6315 43.6955 12.3035 43.9143 12.9145C44.1453 13.5254 44.4675 14.0508 44.8809 14.4907C45.2943 14.9305 45.7989 15.2727 46.3946 15.517C46.9904 15.7492 47.6591 15.8653 48.4007 15.8653C49.4706 15.8653 50.3825 15.6209 51.1363 15.1322C51.8901 14.6434 52.4494 13.8309 52.8142 12.6945H50.5345C50.4494 12.9878 50.2184 13.2688 49.8415 13.5376C49.4646 13.7942 49.0147 13.9225 48.4919 13.9225C47.7624 13.9225 47.2031 13.7331 46.8141 13.3543C46.425 12.9756 46.2122 12.3646 46.1758 11.5215Z" fill="black"/>
<path d="M57.797 6.15144V3.31061H55.2073V6.15144H53.6388V7.8926H55.2073V13.4826C55.2073 13.9592 55.2863 14.344 55.4443 14.6373C55.6024 14.9305 55.8152 15.1566 56.0826 15.3154C56.3623 15.4743 56.6784 15.5781 57.031 15.627C57.3957 15.6881 57.7787 15.7186 58.1799 15.7186C58.4353 15.7186 58.6967 15.7125 58.9641 15.7003C59.2316 15.6881 59.4748 15.6637 59.6936 15.627V13.6109C59.5721 13.6354 59.4444 13.6537 59.3107 13.6659C59.1769 13.6781 59.0371 13.6842 58.8912 13.6842C58.4535 13.6842 58.1617 13.6109 58.0158 13.4643C57.8699 13.3177 57.797 13.0244 57.797 12.5846V7.8926H59.6936V6.15144H57.797Z" fill="black"/>
<path d="M64.2085 6.15144V3.31061H61.6188V6.15144H60.0504V7.8926H61.6188V13.4826C61.6188 13.9592 61.6979 14.344 61.8559 14.6373C62.014 14.9305 62.2267 15.1566 62.4942 15.3154C62.7739 15.4743 63.09 15.5781 63.4426 15.627C63.8073 15.6881 64.1903 15.7186 64.5915 15.7186C64.8468 15.7186 65.1082 15.7125 65.3757 15.7003C65.6432 15.6881 65.8864 15.6637 66.1052 15.627V13.6109C65.9836 13.6354 65.856 13.6537 65.7222 13.6659C65.5885 13.6781 65.4487 13.6842 65.3028 13.6842C64.8651 13.6842 64.5733 13.6109 64.4274 13.4643C64.2815 13.3177 64.2085 13.0244 64.2085 12.5846V7.8926H66.1052V6.15144H64.2085Z" fill="black"/>
<path d="M70 4.68521V2.54083H67.4103V4.68521H70ZM67.4103 6.15144V15.627H70V6.15144H67.4103Z" fill="black"/>
<path d="M17.8534 14.9517C17.8534 16.6032 16.5212 17.9421 14.8779 17.9421C13.2345 17.9421 11.9023 16.6032 11.9023 14.9517C11.9023 13.3002 13.2345 11.9614 14.8779 11.9614C16.5212 11.9614 17.8534 13.3002 17.8534 14.9517Z" fill="#4AA7D4"/>
<path d="M3.62799 13.6863C5.6492 13.1134 6.63758 14.4213 7.56675 14.5196C8.55145 14.6238 9.38066 14.6238 11.2464 14.5717V14.78C11.2464 14.78 8.34414 14.9884 7.20397 14.78C6.06381 14.5717 5.87484 14.2381 5.13094 14.1029C4.3631 13.9635 3.62799 14.3113 3.62799 14.3113V13.6863Z" fill="black"/>
<path d="M4.56966 10.3443C6.66446 10.4936 7.15336 12.0608 7.99442 12.4697C8.88574 12.903 9.66589 13.1854 11.4388 13.7717L11.3686 13.9677C11.3686 13.9677 8.56777 13.1754 7.5653 12.5911C6.56283 12.0069 6.49753 11.6286 5.8432 11.2482C5.16782 10.8555 4.35892 10.9324 4.35892 10.9324L4.56966 10.3443Z" fill="black"/>
<path d="M6.45486 7.40527C8.39541 8.2121 8.36652 9.85421 9.03592 10.5092C9.74533 11.2034 10.3967 11.719 11.8945 12.8383L11.7662 13.002C11.7662 13.002 9.35799 11.3609 8.59059 10.4882C7.82319 9.61554 7.88015 9.23596 7.37898 8.6672C6.86167 8.08014 6.07004 7.89625 6.07004 7.89625L6.45486 7.40527Z" fill="black"/>
<path d="M8.6013 5.50557C10.2934 6.75553 9.87445 8.34302 10.3685 9.13996C10.892 9.98453 11.4018 10.6418 12.5895 12.0887L12.426 12.2168C12.426 12.2168 10.4785 10.0443 9.94108 9.01248C9.40371 7.98064 9.54939 7.62578 9.19817 6.95304C8.83564 6.25865 8.11077 5.88976 8.11077 5.88976L8.6013 5.50557Z" fill="black"/>
<path d="M11.5686 4.11515C12.8347 5.79891 11.9819 7.19989 12.2287 8.10548C12.4903 9.06517 12.7919 9.84143 13.5187 11.5691L13.3256 11.6448C13.3256 11.6448 12.077 9.00371 11.8554 7.86058C11.6338 6.71745 11.8743 6.41921 11.729 5.67367C11.579 4.90412 10.9892 4.34247 10.9892 4.34247L11.5686 4.11515Z" fill="black"/>
<path d="M15.2092 3.60728C15.8806 5.60701 14.6307 6.66508 14.58 7.60264C14.5262 8.59622 14.568 9.42849 14.714 11.2985L14.507 11.309C14.507 11.309 14.1534 8.40656 14.3028 7.25167C14.4523 6.09678 14.7743 5.89027 14.871 5.13681C14.9709 4.35909 14.5881 3.63884 14.5881 3.63884L15.2092 3.60728Z" fill="black"/>
<path d="M18.4261 4.22383C18.5233 6.33206 17.0317 7.00312 16.7259 7.89034C16.4018 8.83057 16.2139 9.64222 15.8415 11.4802L15.6396 11.433C15.6396 11.433 16.0954 8.54504 16.5557 7.47622C17.016 6.40741 17.3821 6.29805 17.6817 5.60053C17.9909 4.88055 17.8204 4.08219 17.8204 4.08219L18.4261 4.22383Z" fill="black"/>
<path d="M21.5584 5.79044C21.0634 7.84147 19.4443 8.06516 18.9032 8.83058C18.3297 9.64172 17.9228 10.3678 17.0525 12.0271L16.8719 11.9249C16.8719 11.9249 18.1153 9.2813 18.8554 8.38512C19.5955 7.48894 19.9775 7.48717 20.4597 6.90207C20.9574 6.29814 21.0165 5.48376 21.0165 5.48376L21.5584 5.79044Z" fill="black"/>
<path d="M23.8678 8.01195C22.8731 9.87069 21.2504 9.67598 20.5343 10.2791C19.7755 10.9183 19.1992 11.5175 17.9399 12.902L17.7909 12.7572C17.7909 12.7572 19.6587 10.5151 20.6001 9.83599C21.5415 9.15684 21.9115 9.25213 22.5252 8.80847C23.1586 8.35054 23.4206 7.57761 23.4206 7.57761L23.8678 8.01195Z" fill="black"/>
<path d="M25.4855 11.0392C23.99 12.5209 22.4964 11.8543 21.6353 12.2187C20.7228 12.6048 19.9964 13.0068 18.3871 13.9568L18.2871 13.7743C18.2871 13.7743 20.7294 12.1849 21.8281 11.8147C22.9269 11.4445 23.2525 11.6451 23.969 11.4028C24.7086 11.1528 25.1855 10.4918 25.1855 10.4918L25.4855 11.0392Z" fill="black"/>
<path d="M26.1575 14.7098C24.2671 15.6289 23.0664 14.5147 22.1345 14.5811C21.1468 14.6514 20.3304 14.7971 18.5024 15.176L18.4662 14.9709C18.4662 14.9709 21.2875 14.2561 22.4464 14.2609C23.6052 14.2658 23.8493 14.5611 24.6053 14.5635C25.3855 14.566 26.0488 14.0944 26.0488 14.0944L26.1575 14.7098Z" fill="black"/>
<path d="M25.7414 17.8875C23.6783 18.2821 22.8065 16.8929 21.8893 16.714C20.9173 16.5244 20.0913 16.4522 18.2281 16.3415L18.246 16.1339C18.246 16.1339 21.1553 16.1793 22.2732 16.4862C23.3911 16.7931 23.5506 17.1419 24.28 17.3414C25.0329 17.5473 25.7953 17.2648 25.7953 17.2648L25.7414 17.8875Z" fill="black"/>
<path d="M24.4475 20.897C22.3583 20.6831 21.9176 19.1016 21.0894 18.6669C20.2118 18.2062 19.4407 17.8998 17.6865 17.259L17.7627 17.0652C17.7627 17.0652 20.538 17.9437 21.5221 18.5587C22.5062 19.1737 22.5599 19.5538 23.2023 19.9543C23.8653 20.3677 24.6762 20.3158 24.6762 20.3158L24.4475 20.897Z" fill="black"/>
<path d="M22.5775 23.2006C20.5979 22.496 20.5421 20.8545 19.8398 20.2353C19.0955 19.579 18.4184 19.098 16.8649 18.0583L16.9846 17.8881C16.9846 17.8881 19.4742 19.4016 20.2856 20.2331C21.097 21.0646 21.0597 21.4466 21.5895 21.9885C22.1364 22.5478 22.9365 22.6902 22.9365 22.6902L22.5775 23.2006Z" fill="#4AA7D4"/>
<path d="M19.9833 25.0375C18.2826 23.7993 18.6907 22.209 18.1912 21.4155C17.6618 20.5746 17.1475 19.9208 15.9498 18.4823L16.1124 18.3531C16.1124 18.3531 18.0749 20.5119 18.6194 21.54C19.1639 22.568 19.0207 22.9239 19.3765 23.5942C19.7438 24.286 20.4712 24.6499 20.4712 24.6499L19.9833 25.0375Z" fill="#4AA7D4"/>
<path d="M17.0993 26.081C15.8099 24.4151 16.6433 23.0023 16.384 22.1003C16.1092 21.1443 15.7969 20.3723 15.0462 18.655L15.2382 18.5766C15.2382 18.5766 16.5233 21.2 16.7607 22.3399C16.9981 23.4798 16.7617 23.7814 16.9173 24.5249C17.0779 25.2922 17.6754 25.8456 17.6754 25.8456L17.0993 26.081Z" fill="#4AA7D4"/>
<path d="M13.9085 26.3015C13.1657 24.3274 14.3769 23.2247 14.3939 22.2859C14.412 21.291 14.3403 20.4608 14.1273 18.5973L14.3339 18.5793C14.3339 18.5793 14.7914 21.467 14.6835 22.6266C14.5755 23.7861 14.2612 24.0042 14.1915 24.7607C14.1197 25.5415 14.5281 26.2474 14.5281 26.2474L13.9085 26.3015Z" fill="black"/>
<path d="M10.9207 25.5538C10.7628 23.4492 12.2344 22.735 12.5145 21.8393C12.8114 20.89 12.9758 20.0732 13.295 18.2251L13.4982 18.2664C13.4982 18.2664 13.1259 21.1665 12.6966 22.2483C12.2673 23.33 11.9045 23.45 11.6251 24.156C11.3368 24.8846 11.5303 25.6777 11.5303 25.6777L10.9207 25.5538Z" fill="black"/>
<path d="M8.10641 24.0324C8.60226 21.9815 10.2214 21.7585 10.7628 20.9933C11.3366 20.1824 11.7438 19.4564 12.6148 17.7974L12.7954 17.8997C12.7954 17.8997 11.5509 20.5429 10.8104 21.4388C10.07 22.3346 9.68801 22.3363 9.20559 22.9212C8.70764 23.5249 8.64818 24.3393 8.64818 24.3393L8.10641 24.0324Z" fill="black"/>
<path d="M6.01115 22.0409C7.01404 20.1866 8.63589 20.3886 9.3546 19.7886C10.1162 19.1528 10.6951 18.5562 11.9606 17.1774L12.109 17.3228C12.109 17.3228 10.2313 19.5565 9.28686 20.2315C8.34246 20.9064 7.97286 20.8095 7.35725 21.2504C6.72182 21.7055 6.45642 22.4773 6.45642 22.4773L6.01115 22.0409Z" fill="black"/>
<path d="M4.48481 19.4943C5.93569 17.9684 7.4484 18.59 8.29831 18.2C9.199 17.7867 9.91311 17.3631 11.4935 16.3652L11.5989 16.5447C11.5989 16.5447 9.20487 18.2066 8.1176 18.6096C7.03033 19.0125 6.69886 18.8218 5.98987 19.0854C5.25807 19.3575 4.80092 20.0325 4.80092 20.0325L4.48481 19.4943Z" fill="black"/>
<path d="M3.66629 16.6566C5.4628 15.5637 6.76199 16.56 7.68367 16.4062C8.66042 16.2431 9.45971 16.0213 11.2443 15.472L11.2995 15.6728C11.2995 15.6728 8.55717 16.65 7.40296 16.7542C6.24875 16.8585 5.97823 16.5874 5.22538 16.6562C4.44829 16.7272 3.83185 17.2591 3.83185 17.2591L3.66629 16.6566Z" fill="black"/>
<path fill-rule="evenodd" clip-rule="evenodd" d="M29.748 15C29.748 23.2267 23.1119 29.8958 14.9258 29.8958C6.73977 29.8958 0.103652 23.2267 0.103652 15C0.103652 6.77326 6.73977 0.104167 14.9258 0.104167C23.1119 0.104167 29.748 6.77326 29.748 15ZM29.8517 15C29.8517 23.2843 23.1692 30 14.9258 30C6.68253 30 0 23.2843 0 15C0 6.71573 6.68253 0 14.9258 0C23.1692 0 29.8517 6.71573 29.8517 15ZM26.9494 14.8438C26.9494 21.546 21.5431 26.9792 14.874 26.9792C8.20495 26.9792 2.7986 21.546 2.7986 14.8438C2.7986 8.14155 8.20495 2.70833 14.874 2.70833C21.5431 2.70833 26.9494 8.14155 26.9494 14.8438ZM27.0531 14.8438C27.0531 21.6035 21.6003 27.0833 14.874 27.0833C8.1477 27.0833 2.69494 21.6035 2.69494 14.8438C2.69494 8.08401 8.1477 2.60417 14.874 2.60417C21.6003 2.60417 27.0531 8.08401 27.0531 14.8438Z" fill="black"/>
<path fill-rule="evenodd" clip-rule="evenodd" d="M14.9258 29.8958C23.1119 29.8958 29.748 23.2267 29.748 15C29.748 6.77326 23.1119 0.104167 14.9258 0.104167C6.73977 0.104167 0.103652 6.77326 0.103652 15C0.103652 23.2267 6.73977 29.8958 14.9258 29.8958ZM27.0531 14.8438C27.0531 21.6035 21.6003 27.0833 14.874 27.0833C8.1477 27.0833 2.69494 21.6035 2.69494 14.8438C2.69494 8.08401 8.1477 2.60417 14.874 2.60417C21.6003 2.60417 27.0531 8.08401 27.0531 14.8438Z" fill="black"/>
</svg>
