<svg width="13" height="17" viewBox="0 0 13 17" fill="none" xmlns="http://www.w3.org/2000/svg">
<path d="M7.3125 4.1959C7.3125 3.73435 6.955 3.35672 6.5 3.35672C6.05312 3.35672 5.6875 3.72596 5.6875 4.1959V5.87425H4.0625C3.61562 5.87425 3.25 6.24349 3.25 6.71343C3.25 7.17498 3.6075 7.55261 4.0625 7.55261H5.6875V9.23097C5.6875 9.69252 6.045 10.0701 6.5 10.0701C6.94688 10.0701 7.3125 9.70091 7.3125 9.23097V7.55261H8.9375C9.38437 7.55261 9.75 7.18337 9.75 6.71343C9.75 6.25188 9.3925 5.87425 8.9375 5.87425H7.3125V4.1959ZM6.5 0C9.9125 0 13 2.70216 13 6.88127C13 9.54986 11.0094 12.6884 7.03625 16.3052C6.7275 16.5822 6.26437 16.5822 5.95563 16.3052C1.99062 12.6884 0 9.54986 0 6.88127C0 2.70216 3.0875 0 6.5 0Z" fill="white"/>
</svg>
