<svg width="13" height="17" viewBox="0 0 13 17" fill="none" xmlns="http://www.w3.org/2000/svg">
<path d="M6.5 1.86187V0.407497C6.5 0.0418717 6.06125 -0.136878 5.80937 0.123122L3.53438 2.39C3.37188 2.5525 3.37188 2.80437 3.53438 2.96687L5.80125 5.23375C6.06125 5.48562 6.5 5.30687 6.5 4.94125V3.48687C9.18937 3.48687 11.375 5.6725 11.375 8.36187C11.375 9.00375 11.2531 9.62937 11.0175 10.19C10.8956 10.4825 10.985 10.8156 11.2044 11.035C11.6188 11.4494 12.3175 11.3031 12.5369 10.7587C12.8375 10.0194 13 9.20687 13 8.36187C13 4.77062 10.0913 1.86187 6.5 1.86187ZM6.5 13.2369C3.81063 13.2369 1.625 11.0512 1.625 8.36187C1.625 7.72 1.74688 7.09437 1.9825 6.53375C2.10438 6.24125 2.015 5.90812 1.79562 5.68875C1.38125 5.27437 0.6825 5.42062 0.463125 5.965C0.1625 6.70437 0 7.51687 0 8.36187C0 11.9531 2.90875 14.8619 6.5 14.8619V16.3162C6.5 16.6819 6.93875 16.8606 7.19063 16.6006L9.4575 14.3337C9.62 14.1712 9.62 13.9194 9.4575 13.7569L7.19063 11.49C6.93875 11.2381 6.5 11.4169 6.5 11.7825V13.2369Z" fill="white"/>
</svg>
