<?xml version="1.0" encoding="UTF-8"?>
<!DOCTYPE svg PUBLIC "-//W3C//DTD SVG 1.1//EN" "http://www.w3.org/Graphics/SVG/1.1/DTD/svg11.dtd">
<!-- Creator: CorelDRAW 2019 (64-Bit) -->
<svg xmlns="http://www.w3.org/2000/svg" xml:space="preserve" width="120px" height="120px" version="1.1" style="shape-rendering:geometricPrecision; text-rendering:geometricPrecision; image-rendering:optimizeQuality; fill-rule:evenodd; clip-rule:evenodd"
viewBox="0 0 120 120"
 xmlns:xlink="http://www.w3.org/1999/xlink"
 xmlns:xodm="http://www.corel.com/coreldraw/odm/2003">
 <defs>
  <style type="text/css">
   <![CDATA[
    .fil1 {fill:#F4B005}
    .fil2 {fill:#F5B005}
    .fil0 {fill:url(#id0)}
   ]]>
  </style>
  <linearGradient id="id0" gradientUnits="userSpaceOnUse" x1="68.73" y1="0.77" x2="63.16" y2="79.98">
   <stop offset="0" style="stop-opacity:1; stop-color:#F5B005"/>
   <stop offset="1" style="stop-opacity:1; stop-color:#FCE20B"/>
  </linearGradient>
 </defs>
 <g id="Слой_x0020_1">
  <metadata id="CorelCorpID_0Corel-Layer"/>
  <path class="fil0" d="M65.94 62.37l-1.52 6.09c-0.91,-0.02 -10.38,-2.81 -12.19,-3.24 0.04,-0.53 1.52,-5.51 1.71,-5.86 -2.16,-1.04 -6.75,-1.71 -9.32,-2.5l2.99 -11.15c0.29,-1.19 0.53,-2.65 1,-3.75 3.4,0.27 28.67,6.71 30.36,7.83 -0.5,1.98 -3.86,14 -3.81,14.9l-9.22 -2.32zm-53.71 -13.58l32.23 8.25 -3.87 14.84c0.93,0.18 2.33,0.97 3.54,1.3 1.28,0.35 2.45,0.72 3.73,1.04 2.62,0.64 5.29,1.18 7.87,1.84l14.33 3.77c0.73,0.18 0.53,0.25 1.22,0.06l3.91 -15.06c1.3,0.6 31.71,8.17 32.09,8.15 0.37,-0.48 0.6,-2.05 0.8,-2.77l9.26 -35.31c0.4,-1.59 2.23,-8.05 2.32,-9.11 -1.66,-0.14 -22.78,-6 -26.09,-6.86 -1.8,-0.46 -3.45,-0.9 -5.3,-1.37 -3.73,-0.93 -12.4,-3.01 -15.68,-4.12 -1.74,-0.59 -3.36,-0.94 -5.19,-1.48l-10.64 -2.7c-10.55,-2.64 -21.46,-5.44 -31.91,-8.5 -0.1,1.19 -6.05,22.71 -6.41,24.2l-5.49 20.61c-0.24,0.91 -0.7,2.05 -0.72,3.22z"/>
  <path class="fil1" d="M107.28 72.98c-0.38,0.02 -30.79,-7.55 -32.09,-8.15l-3.91 15.06c-0.69,0.19 -0.49,0.12 -1.22,-0.06l-14.33 -3.77c-2.58,-0.66 -5.25,-1.2 -7.87,-1.84 -1.28,-0.32 -2.45,-0.69 -3.73,-1.04 -1.21,-0.33 -2.61,-1.12 -3.54,-1.3l3.87 -14.84 -32.23 -8.25 -1.64 5.65c-0.51,2.03 -1.06,3.99 -1.57,5.87 -0.27,1.02 -0.46,1.84 -0.72,2.9 -1.19,4.81 -8.01,30.14 -8.08,32.87 12.44,2.9 23.41,5.98 35.59,8.99l20.46 5.45c1.08,0.3 1.97,0.54 3.01,0.8 1.97,0.49 3.84,1.06 5.86,1.56 0.92,0.23 1.84,0.49 2.86,0.76 0.91,0.25 1.95,0.51 3.01,0.81l14.48 3.99c1.08,0.32 1.93,0.5 3,0.81 3.26,0.96 3.16,0.84 6.6,0.84l10.7 -41.11c0.23,-0.93 0.51,-1.82 0.77,-2.86l0.72 -3.14z"/>
  <path class="fil2" d="M53.94 59.36c0.22,-1.02 0.59,-1.95 0.88,-2.98 0.28,-1.02 0.75,-2.17 0.84,-3.16l11.81 3.05 -1.53 6.1 9.22 2.32c-0.05,-0.9 3.31,-12.92 3.81,-14.9 -1.69,-1.12 -26.96,-7.56 -30.36,-7.83 -0.47,1.1 -0.71,2.56 -1,3.75l-2.99 11.15c2.57,0.79 7.16,1.46 9.32,2.5z"/>
 </g>
</svg>
